<mxfile host="app.diagrams.net" modified="2024-03-13T09:52:55.806Z" agent="Mozilla/5.0 (Windows NT 10.0; Win64; x64; rv:123.0) Gecko/20100101 Firefox/123.0" etag="d8mMqGZbLhQow_MESB_G" version="23.1.5" type="device">
  <diagram name="Pagina-1" id="xI5nvFBQ5HxxW6P7Flix">
    <mxGraphModel dx="915" dy="1650" grid="1" gridSize="10" guides="1" tooltips="1" connect="1" arrows="1" fold="1" page="1" pageScale="1" pageWidth="827" pageHeight="1169" math="0" shadow="0">
      <root>
        <mxCell id="0" />
        <mxCell id="1" parent="0" />
        <mxCell id="D80vIOVLJQnWsdwlMCNh-1" value="" style="swimlane;startSize=0;sketch=1;curveFitting=1;jiggle=2;" parent="1" vertex="1">
          <mxGeometry x="40" y="-10" width="550" height="420" as="geometry" />
        </mxCell>
        <mxCell id="PHsdMOvUVNE0_T_PcIVp-13" value="" style="shape=flexArrow;endArrow=classic;startArrow=none;html=1;rounded=0;exitX=0.5;exitY=0;exitDx=0;exitDy=0;entryX=0.091;entryY=1.033;entryDx=0;entryDy=0;entryPerimeter=0;fillColor=#fff2cc;strokeColor=#d6b656;strokeWidth=2;sketch=1;curveFitting=1;jiggle=2;startFill=0;" parent="D80vIOVLJQnWsdwlMCNh-1" edge="1">
          <mxGeometry width="100" height="100" relative="1" as="geometry">
            <mxPoint x="214.5" y="130" as="sourcePoint" />
            <mxPoint x="214.5" y="51" as="targetPoint" />
          </mxGeometry>
        </mxCell>
        <mxCell id="r5B7y877vwfk4ksvIoEc-4" value="" style="endArrow=classic;html=1;rounded=0;strokeWidth=4;fillColor=#e1d5e7;strokeColor=#9673a6;sketch=1;curveFitting=1;jiggle=2;" edge="1" parent="D80vIOVLJQnWsdwlMCNh-1">
          <mxGeometry width="50" height="50" relative="1" as="geometry">
            <mxPoint x="480" y="330" as="sourcePoint" />
            <mxPoint x="480" y="290" as="targetPoint" />
          </mxGeometry>
        </mxCell>
        <mxCell id="PHsdMOvUVNE0_T_PcIVp-22" value="" style="endArrow=none;html=1;rounded=0;strokeWidth=4;fillColor=#e1d5e7;strokeColor=#9673a6;sketch=1;curveFitting=1;jiggle=2;" parent="1" edge="1">
          <mxGeometry width="50" height="50" relative="1" as="geometry">
            <mxPoint x="156" y="319" as="sourcePoint" />
            <mxPoint x="520" y="319" as="targetPoint" />
          </mxGeometry>
        </mxCell>
        <mxCell id="PHsdMOvUVNE0_T_PcIVp-2" value="&lt;p&gt;&lt;font face=&quot;Comic Sans MS&quot;&gt;CPU&lt;/font&gt;&lt;/p&gt;&lt;p&gt;&lt;font face=&quot;VgUgUpdFGmjPFLryLqvL&quot;&gt;(MCU)&lt;br&gt;&lt;/font&gt;&lt;/p&gt;" style="rounded=0;whiteSpace=wrap;html=1;fillColor=#f8cecc;strokeColor=#b85450;fontStyle=1;strokeWidth=3;sketch=1;curveFitting=1;jiggle=2;" parent="1" vertex="1">
          <mxGeometry x="90" y="120" width="90" height="160" as="geometry" />
        </mxCell>
        <mxCell id="PHsdMOvUVNE0_T_PcIVp-3" value="&lt;p&gt;&lt;font face=&quot;Comic Sans MS&quot;&gt;RAM&lt;/font&gt;&lt;/p&gt;&lt;p&gt;&lt;font face=&quot;LxMjt7TTPdBlD2Jmtptp&quot;&gt;(1.5KB)&lt;br&gt;&lt;/font&gt;&lt;/p&gt;" style="rounded=0;whiteSpace=wrap;html=1;fillColor=#e1d5e7;strokeColor=#9673a6;fontStyle=1;strokeWidth=3;sketch=1;curveFitting=1;jiggle=2;" parent="1" vertex="1">
          <mxGeometry x="330" y="120" width="90" height="160" as="geometry" />
        </mxCell>
        <mxCell id="PHsdMOvUVNE0_T_PcIVp-4" value="&lt;p&gt;&lt;font face=&quot;Comic Sans MS&quot;&gt;ROM&lt;/font&gt;&lt;/p&gt;&lt;p&gt;&lt;font face=&quot;aRoQve1OfyXQI-amFSkX&quot;&gt;(2KB)&lt;br&gt;&lt;/font&gt;&lt;/p&gt;" style="rounded=0;whiteSpace=wrap;html=1;fillColor=#ffe6cc;strokeColor=#d79b00;fontStyle=1;strokeWidth=3;sketch=1;curveFitting=1;jiggle=2;" parent="1" vertex="1">
          <mxGeometry x="210" y="120" width="90" height="160" as="geometry" />
        </mxCell>
        <mxCell id="PHsdMOvUVNE0_T_PcIVp-7" value="&lt;p&gt;&lt;font face=&quot;Comic Sans MS&quot;&gt;DATA BUS (8-bit)&lt;/font&gt;&lt;/p&gt;" style="rounded=0;whiteSpace=wrap;html=1;fillColor=#fff2cc;strokeColor=#d6b656;strokeWidth=2;sketch=1;curveFitting=1;jiggle=2;" parent="1" vertex="1">
          <mxGeometry x="80" y="8" width="470" height="30" as="geometry" />
        </mxCell>
        <mxCell id="PHsdMOvUVNE0_T_PcIVp-11" value="" style="shape=flexArrow;endArrow=classic;startArrow=classic;html=1;rounded=0;exitX=0.5;exitY=0;exitDx=0;exitDy=0;fillColor=#fff2cc;strokeColor=#d6b656;strokeWidth=2;sketch=1;curveFitting=1;jiggle=2;" parent="1" edge="1">
          <mxGeometry width="100" height="100" relative="1" as="geometry">
            <mxPoint x="137" y="120" as="sourcePoint" />
            <mxPoint x="137" y="40" as="targetPoint" />
          </mxGeometry>
        </mxCell>
        <mxCell id="PHsdMOvUVNE0_T_PcIVp-12" value="" style="shape=flexArrow;endArrow=classic;startArrow=classic;html=1;rounded=0;exitX=0.5;exitY=0;exitDx=0;exitDy=0;entryX=0.091;entryY=1.033;entryDx=0;entryDy=0;entryPerimeter=0;fillColor=#fff2cc;strokeColor=#d6b656;strokeWidth=2;sketch=1;curveFitting=1;jiggle=2;" parent="1" edge="1">
          <mxGeometry width="100" height="100" relative="1" as="geometry">
            <mxPoint x="375.5" y="119" as="sourcePoint" />
            <mxPoint x="375.5" y="40" as="targetPoint" />
          </mxGeometry>
        </mxCell>
        <mxCell id="PHsdMOvUVNE0_T_PcIVp-15" value="" style="shape=flexArrow;endArrow=classic;html=1;rounded=0;exitX=0.5;exitY=1;exitDx=0;exitDy=0;entryX=0.117;entryY=-0.033;entryDx=0;entryDy=0;entryPerimeter=0;fillColor=#f5f5f5;strokeColor=#666666;strokeWidth=2;sketch=1;curveFitting=1;jiggle=2;" parent="1" source="PHsdMOvUVNE0_T_PcIVp-2" target="PHsdMOvUVNE0_T_PcIVp-6" edge="1">
          <mxGeometry width="50" height="50" relative="1" as="geometry">
            <mxPoint x="390" y="230" as="sourcePoint" />
            <mxPoint x="440" y="180" as="targetPoint" />
          </mxGeometry>
        </mxCell>
        <mxCell id="PHsdMOvUVNE0_T_PcIVp-16" value="" style="shape=flexArrow;endArrow=classic;html=1;rounded=0;exitX=0.374;exitY=-0.1;exitDx=0;exitDy=0;entryX=0.5;entryY=1;entryDx=0;entryDy=0;fillColor=#f5f5f5;strokeColor=#666666;strokeWidth=2;exitPerimeter=0;sketch=1;curveFitting=1;jiggle=2;" parent="1" source="PHsdMOvUVNE0_T_PcIVp-6" edge="1">
          <mxGeometry width="50" height="50" relative="1" as="geometry">
            <mxPoint x="214" y="357.99" as="sourcePoint" />
            <mxPoint x="256" y="280" as="targetPoint" />
          </mxGeometry>
        </mxCell>
        <mxCell id="PHsdMOvUVNE0_T_PcIVp-17" value="" style="shape=flexArrow;endArrow=classic;html=1;rounded=0;exitX=0.38;exitY=-0.067;exitDx=0;exitDy=0;exitPerimeter=0;entryX=0.5;entryY=1;entryDx=0;entryDy=0;fillColor=#f5f5f5;strokeColor=#666666;strokeWidth=2;sketch=1;curveFitting=1;jiggle=2;" parent="1" edge="1">
          <mxGeometry width="50" height="50" relative="1" as="geometry">
            <mxPoint x="374.5" y="358" as="sourcePoint" />
            <mxPoint x="374.5" y="280" as="targetPoint" />
          </mxGeometry>
        </mxCell>
        <mxCell id="PHsdMOvUVNE0_T_PcIVp-6" value="&lt;p&gt;&lt;font face=&quot;Comic Sans MS&quot;&gt;ADDRESS BUS (12-bit)&lt;/font&gt;&lt;/p&gt;" style="rounded=0;whiteSpace=wrap;html=1;fillColor=#f5f5f5;fontColor=#333333;strokeColor=#666666;strokeWidth=2;sketch=1;curveFitting=1;jiggle=2;" parent="1" vertex="1">
          <mxGeometry x="80" y="360" width="470" height="30" as="geometry" />
        </mxCell>
        <mxCell id="PHsdMOvUVNE0_T_PcIVp-26" value="" style="endArrow=classic;html=1;rounded=0;strokeWidth=4;fillColor=#e1d5e7;strokeColor=#9673a6;sketch=1;curveFitting=1;jiggle=2;" parent="1" edge="1">
          <mxGeometry width="50" height="50" relative="1" as="geometry">
            <mxPoint x="157" y="320" as="sourcePoint" />
            <mxPoint x="157" y="280" as="targetPoint" />
          </mxGeometry>
        </mxCell>
        <mxCell id="PHsdMOvUVNE0_T_PcIVp-27" value="" style="endArrow=classic;html=1;rounded=0;strokeWidth=4;fillColor=#e1d5e7;strokeColor=#9673a6;sketch=1;curveFitting=1;jiggle=2;" parent="1" edge="1">
          <mxGeometry width="50" height="50" relative="1" as="geometry">
            <mxPoint x="280" y="320" as="sourcePoint" />
            <mxPoint x="280" y="280" as="targetPoint" />
          </mxGeometry>
        </mxCell>
        <mxCell id="PHsdMOvUVNE0_T_PcIVp-28" value="" style="endArrow=classic;html=1;rounded=0;strokeWidth=4;fillColor=#e1d5e7;strokeColor=#9673a6;sketch=1;curveFitting=1;jiggle=2;" parent="1" edge="1">
          <mxGeometry width="50" height="50" relative="1" as="geometry">
            <mxPoint x="400" y="320" as="sourcePoint" />
            <mxPoint x="400" y="280" as="targetPoint" />
          </mxGeometry>
        </mxCell>
        <mxCell id="PHsdMOvUVNE0_T_PcIVp-31" value="&lt;p&gt;&lt;font face=&quot;Comic Sans MS&quot; style=&quot;font-size: 10px;&quot;&gt;CONTROL BUS&lt;/font&gt;&lt;/p&gt;" style="text;html=1;align=center;verticalAlign=middle;resizable=0;points=[];autosize=1;strokeWidth=4;sketch=1;curveFitting=1;jiggle=2;" parent="1" vertex="1">
          <mxGeometry x="151" y="286" width="100" height="50" as="geometry" />
        </mxCell>
        <mxCell id="r5B7y877vwfk4ksvIoEc-1" value="&lt;p&gt;&lt;font face=&quot;Comic Sans MS&quot;&gt;I/O&lt;/font&gt;&lt;/p&gt;&lt;p&gt;&lt;font face=&quot;ZPYWuSysR7_uBNmgolhw&quot;&gt;(512 bytes)&lt;br&gt;&lt;/font&gt;&lt;/p&gt;" style="rounded=0;whiteSpace=wrap;html=1;fillColor=#d5e8d4;strokeColor=#82b366;fontStyle=1;strokeWidth=3;sketch=1;curveFitting=1;jiggle=2;" vertex="1" parent="1">
          <mxGeometry x="450" y="121" width="90" height="160" as="geometry" />
        </mxCell>
        <mxCell id="r5B7y877vwfk4ksvIoEc-2" value="" style="shape=flexArrow;endArrow=classic;startArrow=classic;html=1;rounded=0;exitX=0.5;exitY=0;exitDx=0;exitDy=0;entryX=0.091;entryY=1.033;entryDx=0;entryDy=0;entryPerimeter=0;fillColor=#fff2cc;strokeColor=#d6b656;strokeWidth=2;sketch=1;curveFitting=1;jiggle=2;" edge="1" parent="1">
          <mxGeometry width="100" height="100" relative="1" as="geometry">
            <mxPoint x="495.5" y="120" as="sourcePoint" />
            <mxPoint x="495.5" y="41" as="targetPoint" />
          </mxGeometry>
        </mxCell>
        <mxCell id="r5B7y877vwfk4ksvIoEc-3" value="" style="shape=flexArrow;endArrow=classic;html=1;rounded=0;exitX=0.38;exitY=-0.067;exitDx=0;exitDy=0;exitPerimeter=0;entryX=0.5;entryY=1;entryDx=0;entryDy=0;fillColor=#f5f5f5;strokeColor=#666666;strokeWidth=2;sketch=1;curveFitting=1;jiggle=2;" edge="1" parent="1">
          <mxGeometry width="50" height="50" relative="1" as="geometry">
            <mxPoint x="494.5" y="359" as="sourcePoint" />
            <mxPoint x="494.5" y="281" as="targetPoint" />
          </mxGeometry>
        </mxCell>
      </root>
    </mxGraphModel>
  </diagram>
</mxfile>
